<?xml version="1.0" encoding="UTF-8" standalone="no"?>
<svg
   id="Flat"
   viewBox="0 0 320 320"
   version="1.1"
   sodipodi:docname="funnel_icon_174492.svg"
   inkscape:version="1.1.2 (0a00cf5339, 2022-02-04)"
   width="320"
   height="320"
   xmlns:inkscape="http://www.inkscape.org/namespaces/inkscape"
   xmlns:sodipodi="http://sodipodi.sourceforge.net/DTD/sodipodi-0.dtd"
   xmlns="http://www.w3.org/2000/svg"
   xmlns:svg="http://www.w3.org/2000/svg">
  <defs
     id="defs11" />
  <sodipodi:namedview
     id="namedview9"
     pagecolor="#ffffff"
     bordercolor="#666666"
     borderopacity="1.0"
     inkscape:pageshadow="2"
     inkscape:pageopacity="0.0"
     inkscape:pagecheckerboard="0"
     showgrid="false"
     inkscape:zoom="1.1545728"
     inkscape:cx="279.75716"
     inkscape:cy="173.22424"
     inkscape:window-width="1920"
     inkscape:window-height="1023"
     inkscape:window-x="0"
     inkscape:window-y="0"
     inkscape:window-maximized="1"
     inkscape:current-layer="Flat"
     width="320px" />
  <g
     id="g3671"
     transform="translate(31.750924,42.54498)">
    <circle
       style="fill:#cccccc;fill-opacity:1;stroke:#333333;stroke-width:0;stroke-miterlimit:4;stroke-dasharray:none"
       id="path3364-3"
       cx="129.79808"
       cy="119.37893"
       r="148.7594" />
    <circle
       style="fill:none;fill-opacity:1;stroke:#333333;stroke-width:14;stroke-miterlimit:4;stroke-dasharray:none"
       id="path3364"
       cx="128.84882"
       cy="118.53922"
       r="148.7594" />
    <path
       d="M 112.002,233.05664 A 16.01181,16.01181 0 0 1 96,217.05176 v -77.959 L 30.24561,66.76367 A 16.00043,16.00043 0 0 1 42.08447,40 h 171.83106 a 16.00019,16.00019 0 0 1 11.83935,26.7627 L 160,139.09375 v 56.625 a 15.96822,15.96822 0 0 1 -7.12549,13.31348 l -31.99951,21.332 a 15.97927,15.97927 0 0 1 -8.873,2.69241 z M 42.08984,56 l 65.749,72.33008 A 15.96379,15.96379 0 0 1 112,139.09277 v 77.959 l 32,-21.333 v -56.626 a 15.96476,15.96476 0 0 1 4.16309,-10.76465 l 65.74853,-72.32421 z m 171.89454,0.0039 z"
       id="path6"
       style="fill:#333333;fill-opacity:1;stroke:#333333;stroke-width:7;stroke-linejoin:round;stroke-miterlimit:4;stroke-dasharray:none" />
  </g>
</svg>
